<svg width="20" height="23" viewBox="0 0 20 23" xmlns="http://www.w3.org/2000/svg">
<path d="M18.5583 22.4583C18.3882 22.4583 18.2203 22.4042 18.0795 22.3023L10 16.422L1.9205 22.3045C1.6735 22.4822 1.34633 22.5103 1.07333 22.3695C0.802499 22.2319 0.629166 21.9524 0.629166 21.6469V3.06667C0.629166 1.72333 1.72333 0.629166 3.06667 0.629166H16.9312C18.2745 0.629166 19.3687 1.72333 19.3687 3.06667V21.6458C19.3687 21.9513 19.1975 22.2308 18.9245 22.3695C18.8097 22.4291 18.6829 22.4583 18.5562 22.4583H18.5583ZM10 14.6042C10.1679 14.6042 10.3358 14.6562 10.4767 14.7602L17.7458 20.0501V3.06667C17.7458 2.62033 17.3807 2.25417 16.9333 2.25417H3.06667C2.61925 2.25417 2.25417 2.62033 2.25417 3.06667V20.0501L9.52333 14.7602C9.66417 14.6562 9.83208 14.6042 10 14.6042Z" fill="current" stroke="current"/>
</svg>
