<svg width="22" height="22" viewBox="0 0 26 23" xmlns="http://www.w3.org/2000/svg">
<path d="M24.4617 6.9625L13.5146 1.05508C13.1928 0.881746 12.8061 0.881746 12.4854 1.05508L1.54375 6.9625C1.01725 7.2485 0.821164 7.905 1.105 8.4315C1.3 8.79441 1.67375 9.00025 2.05833 9.00025C2.23166 9.00025 2.40933 8.95908 2.57291 8.87025L3.36808 8.44125L5.09058 20.6287C5.32458 21.9439 6.50975 22.8626 7.97225 22.8626H18.0277C19.4902 22.8626 20.6754 21.9439 20.9116 20.6006L22.6319 8.44016L23.4303 8.87133C23.9557 9.15625 24.6133 8.96016 24.8972 8.43366C25.1821 7.90716 24.9838 7.24958 24.4595 6.96575L24.4617 6.9625ZM13 15.7212C11.0554 15.7212 9.47916 14.145 9.47916 12.2004C9.47916 10.2558 11.0554 8.67958 13 8.67958C14.9446 8.67958 16.5208 10.2558 16.5208 12.2004C16.5208 14.145 14.9446 15.7212 13 15.7212Z" fill="current" stroke="current"/>
</svg>
