<svg width="22" height="20" viewBox="0 0 22 20" xmlns="http://www.w3.org/2000/svg">
<path d="M18.8542 0.269501H3.14583C1.50241 0.269501 0.166664 1.60633 0.166664 3.25083V16.7871C0.166664 18.4316 1.50241 19.7695 3.14583 19.7695H18.8542C20.4976 19.7695 21.8333 18.4316 21.8333 16.7871V3.25083C21.8333 1.60633 20.4976 0.269501 18.8542 0.269501ZM3.14583 1.8945H18.8542C19.6017 1.8945 20.2083 2.50117 20.2083 3.24867V4.02217L11.4875 9.83642C11.1917 10.0314 10.8093 10.0336 10.5125 9.83425L1.79166 4.02217V3.24867C1.79166 2.50117 2.39833 1.8945 3.14583 1.8945ZM18.8542 18.1423H3.14583C2.39833 18.1423 1.79166 17.5357 1.79166 16.7882V5.92667L9.635 11.1592C10.0499 11.4365 10.5255 11.5752 11 11.5752C11.4767 11.5752 11.9501 11.4365 12.365 11.1603L20.2083 5.92775V16.7849C20.2083 17.5324 19.6017 18.1391 18.8542 18.1391V18.1423Z" fill="current" stroke="current"/>
</svg>
