<svg width="22" height="22" viewBox="0 0 22 22" xmlns="http://www.w3.org/2000/svg">
<path d="M21.5051 15.8403C21.4834 15.823 19.1868 14.0637 19.2268 9.30782C19.2485 6.56482 18.3472 4.12732 16.6843 2.4449C15.1947 0.935821 13.1775 0.101654 11.0054 0.0908203H10.9913C8.82034 0.101654 6.80317 0.93582 5.31251 2.44599C3.65067 4.1284 2.74717 6.56482 2.77101 9.30782C2.81109 13.9987 0.582672 15.7721 0.493839 15.8403C0.212172 16.0494 0.097339 16.4145 0.206756 16.7482C0.317256 17.0818 0.629256 17.3061 0.978089 17.3061H6.30809C6.41859 19.8086 8.47151 21.8127 10.9989 21.8127C13.5263 21.8127 15.5771 19.8086 15.6865 17.3061H21.0187C21.3675 17.3061 21.6795 17.0829 21.7878 16.7492C21.8994 16.4167 21.7846 16.0505 21.5029 15.8414L21.5051 15.8403ZM11 20.1845C9.36959 20.1845 8.04251 18.9094 7.93634 17.305H14.0637C13.9553 18.9083 12.6304 20.1867 11 20.1867V20.1845ZM2.74501 15.68C3.54667 14.4537 4.42201 12.3997 4.39601 9.29265C4.37651 6.95265 5.09367 4.97882 6.46842 3.58674C7.65251 2.38749 9.26342 1.7234 11 1.71582C12.7366 1.72449 14.3443 2.38749 15.5283 3.58782C16.9042 4.9799 17.6224 6.95265 17.6029 9.29374C17.5769 12.4007 18.4533 14.4558 19.255 15.6811H2.74501V15.68Z" fill="current" stroke="current"/>
</svg>
