<svg width="16.46" height="16.46" viewBox="0 0 18 18" fill="none" xmlns="http://www.w3.org/2000/svg">
<path d="M16.9417 16.0583L13.8917 13.0083C14.9959 11.7 15.6667 10.0117 15.6667 8.16666C15.6667 4.02499 12.3084 0.666656 8.16669 0.666656C4.02502 0.666656 0.666687 4.02499 0.666687 8.16666C0.666687 12.3083 4.02502 15.6667 8.16669 15.6667C10.0125 15.6667 11.7 14.9967 13.0067 13.8917L16.0567 16.9417C16.1792 17.0633 16.34 17.125 16.4984 17.125C16.6567 17.125 16.8192 17.0642 16.94 16.9417C17.1859 16.6975 17.1859 16.3025 16.9417 16.0583ZM1.91669 8.16666C1.91669 4.72082 4.72085 1.91666 8.16669 1.91666C11.6125 1.91666 14.4167 4.72082 14.4167 8.16666C14.4167 11.6125 11.6125 14.4167 8.16669 14.4167C4.72085 14.4167 1.91669 11.6125 1.91669 8.16666Z" fill="#828282"/>
</svg>
